<svg width="1584" height="280" viewBox="0 0 1584 280" fill="none" xmlns="http://www.w3.org/2000/svg">
<mask id="mask0_443_229" style="mask-type:alpha" maskUnits="userSpaceOnUse" x="0" y="0" width="1584" height="243">
<rect opacity="0.7" width="1584" height="243" fill="#D9D9D9"/>
</mask>
<g mask="url(#mask0_443_229)">
<g filter="url(#filter0_d_443_229)">
<path d="M911.641 0.0711514H886.028V0.0711514C885.874 0.0711514 885.458 -0.00889629 885.227 0.0711514C884.997 0.151194 885.381 0.949073 885.227 1.02912C885.227 1.10916 885.227 1.02912 885.227 1.02912C885.151 1.18921 884.427 0.86903 884.427 1.02912L861.215 50.8435L837.202 1.02912C836.818 0.308725 835.568 -0.0889344 834.8 0.0711514C834.109 0.231242 834 1.26669 834 1.98709V54.6754C834 55.5559 834.756 56.5913 835.601 56.5913C836.446 56.5913 837.202 55.5559 837.202 54.6754V8.69287L859.614 55.6333C860.151 56.754 861.477 56.754 862.015 55.6333L884.427 8.69287V54.6754C884.427 55.5559 885.183 56.5913 886.028 56.5913H911.641C912.563 56.5913 913.242 55.5559 913.242 54.6754V1.98709C913.242 1.1066 912.563 0.0711514 911.641 0.0711514Z" fill="#911515"/>
<path d="M989.283 53.7174L963.669 1.02912C963.439 0.46881 962.683 0.0711514 962.068 0.0711514H937.255C936.641 0.0711514 935.961 0.548858 935.654 1.02912C935.654 1.10917 935.654 1.02912 935.654 1.02912C935.654 1.10916 935.654 1.02912 935.654 1.02912L922.847 27.8522C922.771 27.8522 922.847 27.7722 922.847 27.8522L910.041 53.7174C909.657 54.5178 910.073 56.1911 910.841 56.5913C911.609 56.9915 912.781 56.4338 913.242 55.6333L925.249 29.7682H948.461L960.467 55.6333C960.544 55.9535 961.037 56.4312 961.268 56.5913C961.498 56.7514 961.838 56.5913 962.068 56.5913H987.682C988.296 56.5913 988.175 56.1136 988.482 55.6333C988.79 55.1531 989.513 54.1977 989.283 53.7174ZM926.85 26.8943L937.255 5.81896L946.86 26.8943H926.85Z" fill="#911515"/>
<path d="M1053.32 29.7682C1060 28.5675 1065.32 22.6827 1065.32 15.3987C1065.32 7.23417 1058.75 0.0711514 1050.92 0.0711514H987.682C986.837 0.0711514 986.081 1.1066 986.081 1.98709V54.6754C986.081 55.5559 986.837 56.5913 987.682 56.5913H1013.3C1014.14 56.5913 1014.9 55.5559 1014.9 54.6754V29.7682H1050.12L1062.12 55.6333C1062.43 56.1936 1063.18 56.5913 1063.72 56.5913C1063.95 56.5913 1064.29 56.7514 1064.52 56.5913C1065.29 56.1911 1065.71 54.5178 1065.32 53.7174L1053.32 29.7682ZM1014.9 26.8943V3.90303C1029.11 3.90303 1036.7 3.90303 1050.92 3.90303C1056.98 3.90303 1062.12 8.99513 1062.12 15.3987C1062.12 21.7221 1056.98 26.8943 1050.92 26.8943H1014.9Z" fill="#911515"/>
<path d="M1123.75 20.1885H1107.75C1103.37 20.1885 1100.54 16.0492 1100.54 11.5668C1100.54 7.00427 1103.37 3.90303 1107.75 3.90303H1126.96C1127.8 3.90303 1128.56 2.86757 1128.56 1.98709C1128.56 1.1066 1127.8 0.0711514 1126.96 0.0711514H1082.93C1076.87 0.0711514 1071.73 5.16326 1071.73 11.5668C1071.73 17.8902 1076.87 23.0624 1082.93 23.0624H1098.94C1106.78 23.0624 1112.55 30.2254 1112.55 38.3899C1112.55 46.5544 1106.78 52.7594 1098.94 52.7594H1063.72C1062.88 52.7594 1062.12 53.7949 1062.12 54.6754C1062.12 55.5559 1062.88 56.5913 1063.72 56.5913H1123.75C1133.35 56.5913 1141.36 48.3954 1141.36 38.3899C1141.36 28.3844 1133.35 20.1885 1123.75 20.1885Z" fill="#911515"/>
<path d="M1232.61 0.0711514H1169.38C1168.53 0.0711514 1167.78 1.1066 1167.78 1.98709V54.6754C1167.78 55.5559 1168.53 56.5913 1169.38 56.5913H1194.19C1195.04 56.5913 1195.79 55.5559 1195.79 54.6754V29.7682H1232.61C1240.52 29.7682 1246.22 23.5631 1246.22 15.3987C1246.22 7.23417 1240.52 0.0711514 1232.61 0.0711514ZM1232.61 26.8943H1195.79V3.90303H1232.61C1238.76 3.90303 1243.02 8.99513 1243.02 15.3987C1243.02 21.8022 1238.76 26.8943 1232.61 26.8943Z" fill="#911515"/>
<path d="M1315.06 52.7594H1267.03L1291.04 2.94506C1291.2 2.70492 1291.04 2.22722 1291.04 1.98709C1291.04 1.90705 1291.04 2.06713 1291.04 1.98709C1291.04 1.827 1291.12 1.18921 1291.04 1.02912C1291.04 0.949077 1291.12 1.10917 1291.04 1.02912C1291.04 1.02912 1291.04 1.10916 1291.04 1.02912C1290.89 0.869034 1290.4 0.231242 1290.24 0.0711514V0.0711514C1290.17 0.0711514 1290.24 0.0711514 1290.24 0.0711514C1290.01 -0.0889392 1289.67 0.0711514 1289.44 0.0711514V0.0711514H1264.63C1264.09 0.0711514 1263.34 0.46881 1263.03 1.02912L1237.42 53.7174C1237.11 54.1977 1237.11 55.1531 1237.42 55.6333C1237.65 56.1136 1238.48 56.5913 1239.02 56.5913H1315.06C1315.98 56.5913 1316.66 55.5559 1316.66 54.6754C1316.66 53.7949 1315.98 52.7594 1315.06 52.7594Z" fill="#911515"/>
<path d="M1379.89 53.7174L1355.08 1.02912C1354.85 0.46881 1354.09 0.0711514 1353.48 0.0711514H1327.86C1327.25 0.0711514 1327.37 0.548858 1327.06 1.02912C1327.06 1.10917 1327.06 1.02912 1327.06 1.02912C1327.06 1.10916 1327.06 1.02912 1327.06 1.02912L1314.26 27.8522C1314.18 27.8522 1314.26 27.7722 1314.26 27.8522L1301.45 53.7174C1301.07 54.5178 1301.48 56.1911 1302.25 56.5913C1303.02 56.9915 1304.19 56.4338 1304.65 55.6333L1316.66 29.7682H1339.87L1351.88 55.6333C1351.95 55.9535 1352.45 56.4312 1352.68 56.5913C1352.91 56.7514 1353.25 56.5913 1353.48 56.5913H1378.29C1378.9 56.5913 1379.58 56.1136 1379.89 55.6333C1380.2 55.1531 1380.12 54.1977 1379.89 53.7174ZM1318.26 26.8943L1327.86 5.81896L1338.27 26.8943H1318.26Z" fill="#911515"/>
<path d="M1455.93 1.02912C1455.62 0.548858 1455.67 0.0711514 1455.13 0.0711514H1429.52C1429.44 0.0711514 1429.52 0.0711514 1429.52 0.0711514C1429.29 0.0711514 1428.87 -0.00889153 1428.72 0.0711514C1428.64 0.151194 1428.79 0.0711514 1428.72 0.0711514C1428.56 0.231242 1428.07 0.788987 1427.92 1.02912L1405.5 47.9696V1.98709C1405.5 1.26669 1405.47 0.231242 1404.7 0.0711514C1404.01 -0.0889344 1403.41 0.308725 1403.1 1.02912L1377.49 53.7174C1377.11 54.5178 1377.52 56.1911 1378.29 56.5913C1378.52 56.7514 1378.86 56.5913 1379.09 56.5913C1379.71 56.5913 1380.38 56.1936 1380.69 55.6333L1402.3 8.69287V54.6754C1402.3 54.7554 1402.3 54.5953 1402.3 54.6754C1402.38 54.9155 1402.95 55.3932 1403.1 55.6333C1403.1 55.6333 1403.1 55.5533 1403.1 55.6333C1403.1 55.6333 1403.03 55.6333 1403.1 55.6333C1403.18 55.8735 1402.87 56.5113 1403.1 56.5913C1403.18 56.6714 1403.83 56.5913 1403.9 56.5913C1403.98 56.6714 1403.75 56.5913 1403.9 56.5913C1403.98 56.5913 1403.83 56.5913 1403.9 56.5913C1403.98 56.5913 1403.83 56.5913 1403.9 56.5913H1429.52C1430.13 56.5913 1430.89 56.1936 1431.12 55.6333L1455.93 2.94506C1456.16 2.46479 1456.24 1.50939 1455.93 1.02912Z" fill="#911515"/>
<path d="M1518.36 52.7594H1470.34L1481.55 29.7682H1506.36C1507.2 29.7682 1507.96 28.8128 1507.96 27.8522C1507.96 26.9718 1507.2 26.8943 1506.36 26.8943H1483.15L1494.35 3.90303H1506.36C1507.2 3.90303 1507.96 2.86757 1507.96 1.98709C1507.96 1.1066 1507.2 0.0711514 1506.36 0.0711514H1467.94C1467.4 0.0711514 1466.64 0.46881 1466.34 1.02912L1441.52 53.7174C1441.22 54.1977 1441.22 55.1531 1441.52 55.6333C1441.75 56.1136 1442.59 56.5913 1443.12 56.5913H1518.36C1519.29 56.5913 1519.97 55.5559 1519.97 54.6754C1519.97 53.7949 1519.29 52.7594 1518.36 52.7594Z" fill="#911515"/>
<path d="M1582.4 0.0711514H1506.36C1505.51 0.0711514 1504.76 1.1066 1504.76 1.98709C1504.76 2.86757 1505.51 3.90303 1506.36 3.90303H1530.37V54.6754C1530.37 55.5559 1531.05 56.5913 1531.97 56.5913H1556.79C1557.63 56.5913 1558.39 55.5559 1558.39 54.6754V3.90303H1582.4C1583.32 3.90303 1584 2.86757 1584 1.98709C1584 1.1066 1583.32 0.0711514 1582.4 0.0711514Z" fill="#911515"/>
</g>
<g filter="url(#filter1_d_443_229)">
<path d="M809.2 27.7586C809.2 41.6165 798.293 52.7172 785 52.7172C771.707 52.7172 760.8 41.6165 760.8 27.7586C760.8 13.9007 771.707 2.8 785 2.8C798.293 2.8 809.2 13.9007 809.2 27.7586Z" stroke="#D8C7C7" stroke-width="5.6"/>
<ellipse cx="776.5" cy="7.24165" rx="4.5" ry="4.82759" fill="#D8C7C7"/>
<ellipse cx="798" cy="12.0699" rx="3" ry="3.62069" fill="#D8C7C7"/>
<ellipse cx="800" cy="26.5506" rx="2" ry="1.2069" fill="#D8C7C7"/>
<ellipse cx="795" cy="47.0699" rx="3" ry="3.62069" fill="#D8C7C7"/>
<ellipse cx="773" cy="33.1888" rx="5" ry="5.43103" fill="#D8C7C7"/>
<ellipse cx="790" cy="27.7574" rx="3" ry="3.62069" fill="#D8C7C7"/>
<ellipse cx="785" cy="17.4998" rx="2" ry="1.81034" fill="#D8C7C7"/>
<ellipse cx="772" cy="18.1034" rx="1" ry="1.2069" fill="#D8C7C7"/>
<ellipse cx="782.5" cy="41.035" rx="1.5" ry="1.2069" fill="#D8C7C7"/>
</g>
<g filter="url(#filter2_d_443_229)">
<path d="M77.6414 0.0711514H52.0277V0.0711514C51.8741 0.0711514 51.4577 -0.00889629 51.2273 0.0711514C50.9969 0.151194 51.3809 0.949073 51.2273 1.02912C51.2273 1.10916 51.2273 1.02912 51.2273 1.02912C51.1505 1.18921 50.4269 0.86903 50.4269 1.02912L27.2145 50.8435L3.20171 1.02912C2.8177 0.308725 1.56845 -0.0889344 0.800427 0.0711514C0.109206 0.231242 0 1.26669 0 1.98709V54.6754C0 55.5559 0.756028 56.5913 1.60085 56.5913C2.44568 56.5913 3.20171 55.5559 3.20171 54.6754V8.69287L25.6137 55.6333C26.1513 56.754 27.4773 56.754 28.0149 55.6333L50.4269 8.69287V54.6754C50.4269 55.5559 51.1829 56.5913 52.0277 56.5913H77.6414C78.563 56.5913 79.2423 55.5559 79.2423 54.6754V1.98709C79.2423 1.1066 78.563 0.0711514 77.6414 0.0711514Z" fill="#D8C7C7"/>
<path d="M155.283 53.7174L129.669 1.02912C129.439 0.46881 128.683 0.0711514 128.068 0.0711514H103.255C102.641 0.0711514 101.961 0.548858 101.654 1.02912C101.654 1.10917 101.654 1.02912 101.654 1.02912C101.654 1.10916 101.654 1.02912 101.654 1.02912L88.8474 27.8522C88.7706 27.8522 88.8474 27.7722 88.8474 27.8522L76.0406 53.7174C75.6565 54.5178 76.073 56.1911 76.841 56.5913C77.609 56.9915 78.7814 56.4338 79.2423 55.6333L91.2487 29.7682H114.461L126.467 55.6333C126.544 55.9535 127.037 56.4312 127.268 56.5913C127.498 56.7514 127.838 56.5913 128.068 56.5913H153.682C154.296 56.5913 154.175 56.1136 154.482 55.6333C154.79 55.1531 155.513 54.1977 155.283 53.7174ZM92.8495 26.8943L103.255 5.81896L112.86 26.8943H92.8495Z" fill="#D8C7C7"/>
<path d="M219.317 29.7682C225.999 28.5675 231.323 22.6827 231.323 15.3987C231.323 7.23417 224.75 0.0711514 216.916 0.0711514H153.682C152.837 0.0711514 152.081 1.1066 152.081 1.98709V54.6754C152.081 55.5559 152.837 56.5913 153.682 56.5913H179.296C180.14 56.5913 180.896 55.5559 180.896 54.6754V29.7682H216.115L228.122 55.6333C228.429 56.1936 229.185 56.5913 229.723 56.5913C229.953 56.5913 230.293 56.7514 230.523 56.5913C231.291 56.1911 231.707 54.5178 231.323 53.7174L219.317 29.7682ZM180.896 26.8943V3.90303H216.916C222.983 3.90303 228.122 8.99513 228.122 15.3987C228.122 21.7221 222.983 26.8943 216.916 26.8943H180.896Z" fill="#D8C7C7"/>
<path d="M289.755 20.1885H273.746C269.368 20.1885 266.542 16.0492 266.542 11.5668C266.542 7.00427 269.368 3.90303 273.746 3.90303H292.956C293.801 3.90303 294.557 2.86757 294.557 1.98709C294.557 1.1066 293.801 0.0711514 292.956 0.0711514H248.933C242.865 0.0711514 237.727 5.16326 237.727 11.5668C237.727 17.8902 242.865 23.0624 248.933 23.0624H264.941C272.775 23.0624 278.549 30.2254 278.549 38.3899C278.549 46.5544 272.775 52.7594 264.941 52.7594H229.723C228.878 52.7594 228.122 53.7949 228.122 54.6754C228.122 55.5559 228.878 56.5913 229.723 56.5913H289.755C299.355 56.5913 307.364 48.3954 307.364 38.3899C307.364 28.3844 299.355 20.1885 289.755 20.1885Z" fill="#D8C7C7"/>
<path d="M398.613 0.0711514H335.379C334.534 0.0711514 333.778 1.1066 333.778 1.98709V54.6754C333.778 55.5559 334.534 56.5913 335.379 56.5913H360.192C361.037 56.5913 361.793 55.5559 361.793 54.6754V29.7682H398.613C406.523 29.7682 412.22 23.5631 412.22 15.3987C412.22 7.23417 406.523 0.0711514 398.613 0.0711514ZM398.613 26.8943H361.793V3.90303H398.613C404.757 3.90303 409.018 8.99513 409.018 15.3987C409.018 21.8022 404.757 26.8943 398.613 26.8943Z" fill="#D8C7C7"/>
<path d="M481.057 52.7594H433.031L457.044 2.94506C457.197 2.70492 457.044 2.22722 457.044 1.98709C457.044 1.90705 457.044 2.06713 457.044 1.98709C457.044 1.827 457.121 1.18921 457.044 1.02912C457.044 0.949077 457.121 1.10917 457.044 1.02912C457.044 1.02912 457.044 1.10916 457.044 1.02912C456.89 0.869034 456.397 0.231242 456.243 0.0711514V0.0711514C456.167 0.0711514 456.243 0.0711514 456.243 0.0711514C456.013 -0.0889392 455.673 0.0711514 455.443 0.0711514V0.0711514H430.63C430.092 0.0711514 429.336 0.46881 429.029 1.02912L403.415 53.7174C403.108 54.1977 403.108 55.1531 403.415 55.6333C403.646 56.1136 404.478 56.5913 405.016 56.5913H481.057C481.978 56.5913 482.657 55.5559 482.657 54.6754C482.657 53.7949 481.978 52.7594 481.057 52.7594Z" fill="#D8C7C7"/>
<path d="M545.891 53.7174L521.078 1.02912C520.848 0.46881 520.091 0.0711514 519.477 0.0711514H493.863C493.249 0.0711514 493.37 0.548858 493.063 1.02912C493.063 1.10917 493.063 1.02912 493.063 1.02912C493.063 1.10916 493.063 1.02912 493.063 1.02912L480.256 27.8522C480.179 27.8522 480.256 27.7722 480.256 27.8522L467.449 53.7174C467.065 54.5178 467.482 56.1911 468.25 56.5913C469.018 56.9915 470.19 56.4338 470.651 55.6333L482.657 29.7682H505.87L517.876 55.6333C517.953 55.9535 518.446 56.4312 518.677 56.5913C518.907 56.7514 519.247 56.5913 519.477 56.5913H544.29C544.905 56.5913 545.584 56.1136 545.891 55.6333C546.198 55.1531 546.122 54.1977 545.891 53.7174ZM484.258 26.8943L493.863 5.81896L504.269 26.8943H484.258Z" fill="#D8C7C7"/>
<path d="M621.932 1.02912C621.624 0.548858 621.669 0.0711514 621.131 0.0711514H595.518C595.441 0.0711514 595.518 0.0711514 595.518 0.0711514C595.287 0.0711514 594.871 -0.00889153 594.717 0.0711514C594.64 0.151194 594.794 0.0711514 594.717 0.0711514C594.564 0.231242 594.07 0.788987 593.917 1.02912L571.505 47.9696V1.98709C571.505 1.26669 571.472 0.231242 570.704 0.0711514C570.013 -0.0889344 569.411 0.308725 569.104 1.02912L543.49 53.7174C543.106 54.5178 543.522 56.1911 544.29 56.5913C544.521 56.7514 544.86 56.5913 545.091 56.5913C545.705 56.5913 546.384 56.1936 546.692 55.6333L568.303 8.69287V54.6754C568.303 54.7554 568.303 54.5953 568.303 54.6754C568.38 54.9155 568.95 55.3932 569.104 55.6333C569.104 55.6333 569.104 55.5533 569.104 55.6333C569.104 55.6333 569.027 55.6333 569.104 55.6333C569.18 55.8735 568.873 56.5113 569.104 56.5913C569.18 56.6714 569.827 56.5913 569.904 56.5913C569.981 56.6714 569.75 56.5913 569.904 56.5913C569.981 56.5913 569.827 56.5913 569.904 56.5913C569.981 56.5913 569.827 56.5913 569.904 56.5913H595.518C596.132 56.5913 596.888 56.1936 597.118 55.6333L621.932 2.94506C622.162 2.46479 622.239 1.50939 621.932 1.02912Z" fill="#D8C7C7"/>
<path d="M684.365 52.7594H636.339L647.545 29.7682H672.359C673.203 29.7682 673.959 28.8128 673.959 27.8522C673.959 26.9718 673.203 26.8943 672.359 26.8943H649.146L660.352 3.90303H672.359C673.203 3.90303 673.959 2.86757 673.959 1.98709C673.959 1.1066 673.203 0.0711514 672.359 0.0711514H633.938C633.4 0.0711514 632.644 0.46881 632.337 1.02912L607.524 53.7174C607.217 54.1977 607.217 55.1531 607.524 55.6333C607.754 56.1136 608.587 56.5913 609.125 56.5913H684.365C685.287 56.5913 685.966 55.5559 685.966 54.6754C685.966 53.7949 685.287 52.7594 684.365 52.7594Z" fill="#D8C7C7"/>
<path d="M748.399 0.0711514H672.359C671.514 0.0711514 670.758 1.1066 670.758 1.98709C670.758 2.86757 671.514 3.90303 672.359 3.90303H696.371V54.6754C696.371 55.5559 697.051 56.5913 697.972 56.5913H722.785C723.63 56.5913 724.386 55.5559 724.386 54.6754V3.90303H748.399C749.321 3.90303 750 2.86757 750 1.98709C750 1.1066 749.321 0.0711514 748.399 0.0711514Z" fill="#D8C7C7"/>
</g>
<g filter="url(#filter3_d_443_229)">
<path d="M547.641 186.071H522.028V186.071C521.874 186.071 521.458 185.991 521.227 186.071C520.997 186.151 521.381 186.949 521.227 187.029C521.227 187.109 521.227 187.029 521.227 187.029C521.151 187.189 520.427 186.869 520.427 187.029L497.215 236.843L473.202 187.029C472.818 186.309 471.568 185.911 470.8 186.071C470.109 186.231 470 187.267 470 187.987V240.675C470 241.556 470.756 242.591 471.601 242.591C472.446 242.591 473.202 241.556 473.202 240.675V194.693L495.614 241.633C496.151 242.754 497.477 242.754 498.015 241.633L520.427 194.693V240.675C520.427 241.556 521.183 242.591 522.028 242.591H547.641C548.563 242.591 549.242 241.556 549.242 240.675V187.987C549.242 187.107 548.563 186.071 547.641 186.071Z" fill="#911515"/>
<path d="M625.283 239.717L599.669 187.029C599.439 186.469 598.683 186.071 598.068 186.071H573.255C572.641 186.071 571.961 186.549 571.654 187.029C571.654 187.109 571.654 187.029 571.654 187.029C571.654 187.109 571.654 187.029 571.654 187.029L558.847 213.852C558.771 213.852 558.847 213.772 558.847 213.852L546.041 239.717C545.657 240.518 546.073 242.191 546.841 242.591C547.609 242.992 548.781 242.434 549.242 241.633L561.249 215.768H584.461L596.467 241.633C596.544 241.954 597.037 242.431 597.268 242.591C597.498 242.751 597.838 242.591 598.068 242.591H623.682C624.296 242.591 624.175 242.114 624.482 241.633C624.79 241.153 625.513 240.198 625.283 239.717ZM562.85 212.894L573.255 191.819L582.86 212.894H562.85Z" fill="#911515"/>
<path d="M689.317 215.768C695.999 214.568 701.323 208.683 701.323 201.399C701.323 193.234 694.75 186.071 686.916 186.071H623.682C622.837 186.071 622.081 187.107 622.081 187.987V240.675C622.081 241.556 622.837 242.591 623.682 242.591H649.296C650.14 242.591 650.896 241.556 650.896 240.675V215.768H686.115L698.122 241.633C698.429 242.194 699.185 242.591 699.723 242.591C699.953 242.591 700.293 242.751 700.523 242.591C701.291 242.191 701.707 240.518 701.323 239.717L689.317 215.768ZM650.896 212.894V189.903C665.113 189.903 672.699 189.903 686.916 189.903C692.983 189.903 698.122 194.995 698.122 201.399C698.122 207.722 692.983 212.894 686.916 212.894H650.896Z" fill="#911515"/>
<path d="M759.755 206.188H743.746C739.368 206.188 736.542 202.049 736.542 197.567C736.542 193.004 739.368 189.903 743.746 189.903H762.956C763.801 189.903 764.557 188.868 764.557 187.987C764.557 187.107 763.801 186.071 762.956 186.071H718.933C712.865 186.071 707.727 191.163 707.727 197.567C707.727 203.89 712.865 209.062 718.933 209.062H734.941C742.775 209.062 748.549 216.225 748.549 224.39C748.549 232.554 742.775 238.759 734.941 238.759H699.723C698.878 238.759 698.122 239.795 698.122 240.675C698.122 241.556 698.878 242.591 699.723 242.591H759.755C769.355 242.591 777.364 234.395 777.364 224.39C777.364 214.384 769.355 206.188 759.755 206.188Z" fill="#911515"/>
<path d="M868.613 186.071H805.379C804.534 186.071 803.778 187.107 803.778 187.987V240.675C803.778 241.556 804.534 242.591 805.379 242.591H830.192C831.037 242.591 831.793 241.556 831.793 240.675V215.768H868.613C876.523 215.768 882.22 209.563 882.22 201.399C882.22 193.234 876.523 186.071 868.613 186.071ZM868.613 212.894H831.793V189.903H868.613C874.757 189.903 879.018 194.995 879.018 201.399C879.018 207.802 874.757 212.894 868.613 212.894Z" fill="#911515"/>
<path d="M951.057 238.759H903.031L927.044 188.945C927.197 188.705 927.044 188.227 927.044 187.987C927.044 187.907 927.044 188.067 927.044 187.987C927.044 187.827 927.121 187.189 927.044 187.029C927.044 186.949 927.121 187.109 927.044 187.029C927.044 187.029 927.044 187.109 927.044 187.029C926.89 186.869 926.397 186.231 926.243 186.071V186.071C926.167 186.071 926.243 186.071 926.243 186.071C926.013 185.911 925.673 186.071 925.443 186.071V186.071H900.63C900.092 186.071 899.336 186.469 899.029 187.029L873.415 239.717C873.108 240.198 873.108 241.153 873.415 241.633C873.646 242.114 874.478 242.591 875.016 242.591H951.057C951.978 242.591 952.657 241.556 952.657 240.675C952.657 239.795 951.978 238.759 951.057 238.759Z" fill="#911515"/>
<path d="M1015.89 239.717L991.078 187.029C990.848 186.469 990.091 186.071 989.477 186.071H963.863C963.249 186.071 963.37 186.549 963.063 187.029C963.063 187.109 963.063 187.029 963.063 187.029C963.063 187.109 963.063 187.029 963.063 187.029L950.256 213.852C950.179 213.852 950.256 213.772 950.256 213.852L937.449 239.717C937.065 240.518 937.482 242.191 938.25 242.591C939.018 242.992 940.19 242.434 940.651 241.633L952.657 215.768H975.87L987.876 241.633C987.953 241.954 988.446 242.431 988.677 242.591C988.907 242.751 989.247 242.591 989.477 242.591H1014.29C1014.9 242.591 1015.58 242.114 1015.89 241.633C1016.2 241.153 1016.12 240.198 1015.89 239.717ZM954.258 212.894L963.863 191.819L974.269 212.894H954.258Z" fill="#911515"/>
<path d="M1091.93 187.029C1091.62 186.549 1091.67 186.071 1091.13 186.071H1065.52C1065.44 186.071 1065.52 186.071 1065.52 186.071C1065.29 186.071 1064.87 185.991 1064.72 186.071C1064.64 186.151 1064.79 186.071 1064.72 186.071C1064.56 186.231 1064.07 186.789 1063.92 187.029L1041.5 233.97V187.987C1041.5 187.267 1041.47 186.231 1040.7 186.071C1040.01 185.911 1039.41 186.309 1039.1 187.029L1013.49 239.717C1013.11 240.518 1013.52 242.191 1014.29 242.591C1014.52 242.751 1014.86 242.591 1015.09 242.591C1015.71 242.591 1016.38 242.194 1016.69 241.633L1038.3 194.693V240.675C1038.3 240.755 1038.3 240.595 1038.3 240.675C1038.38 240.916 1038.95 241.393 1039.1 241.633C1039.1 241.633 1039.1 241.553 1039.1 241.633C1039.1 241.633 1039.03 241.633 1039.1 241.633C1039.18 241.873 1038.87 242.511 1039.1 242.591C1039.18 242.671 1039.83 242.591 1039.9 242.591C1039.98 242.671 1039.75 242.591 1039.9 242.591C1039.98 242.591 1039.83 242.591 1039.9 242.591C1039.98 242.591 1039.83 242.591 1039.9 242.591H1065.52C1066.13 242.591 1066.89 242.194 1067.12 241.633L1091.93 188.945C1092.16 188.465 1092.24 187.509 1091.93 187.029Z" fill="#911515"/>
<path d="M1154.36 238.759H1106.34L1117.55 215.768H1142.36C1143.2 215.768 1143.96 214.813 1143.96 213.852C1143.96 212.972 1143.2 212.894 1142.36 212.894H1119.15L1130.35 189.903H1142.36C1143.2 189.903 1143.96 188.868 1143.96 187.987C1143.96 187.107 1143.2 186.071 1142.36 186.071H1103.94C1103.4 186.071 1102.64 186.469 1102.34 187.029L1077.52 239.717C1077.22 240.198 1077.22 241.153 1077.52 241.633C1077.75 242.114 1078.59 242.591 1079.12 242.591H1154.36C1155.29 242.591 1155.97 241.556 1155.97 240.675C1155.97 239.795 1155.29 238.759 1154.36 238.759Z" fill="#911515"/>
<path d="M1218.4 186.071H1142.36C1141.51 186.071 1140.76 187.107 1140.76 187.987C1140.76 188.868 1141.51 189.903 1142.36 189.903H1166.37V240.675C1166.37 241.556 1167.05 242.591 1167.97 242.591H1192.79C1193.63 242.591 1194.39 241.556 1194.39 240.675V189.903H1218.4C1219.32 189.903 1220 188.868 1220 187.987C1220 187.107 1219.32 186.071 1218.4 186.071Z" fill="#911515"/>
</g>
<g filter="url(#filter4_d_443_229)">
<path d="M445.2 213.759C445.2 227.617 434.293 238.717 421 238.717C407.707 238.717 396.8 227.617 396.8 213.759C396.8 199.901 407.707 188.8 421 188.8C434.293 188.8 445.2 199.901 445.2 213.759Z" stroke="#D8C7C7" stroke-width="5.6"/>
<ellipse cx="412.5" cy="193.242" rx="4.5" ry="4.82759" fill="#D8C7C7"/>
<ellipse cx="434" cy="198.07" rx="3" ry="3.62069" fill="#D8C7C7"/>
<ellipse cx="436" cy="212.551" rx="2" ry="1.2069" fill="#D8C7C7"/>
<ellipse cx="431" cy="233.07" rx="3" ry="3.62069" fill="#D8C7C7"/>
<ellipse cx="409" cy="219.189" rx="5" ry="5.43103" fill="#D8C7C7"/>
<ellipse cx="426" cy="213.757" rx="3" ry="3.62069" fill="#D8C7C7"/>
<ellipse cx="421" cy="203.5" rx="2" ry="1.81034" fill="#D8C7C7"/>
<ellipse cx="408" cy="204.103" rx="1" ry="1.2069" fill="#D8C7C7"/>
<ellipse cx="418.5" cy="227.035" rx="1.5" ry="1.2069" fill="#D8C7C7"/>
</g>
<g filter="url(#filter5_d_443_229)">
<path d="M-286.359 186.071H-311.972C-312.126 186.071 -312.542 185.991 -312.773 186.071C-313.003 186.151 -312.619 186.949 -312.773 187.029C-312.849 187.189 -313.573 186.869 -313.573 187.029L-336.785 236.843L-360.798 187.029C-361.182 186.309 -362.432 185.911 -363.2 186.071C-363.891 186.231 -364 187.267 -364 187.987V240.675C-364 241.556 -363.244 242.591 -362.399 242.591C-361.554 242.591 -360.798 241.556 -360.798 240.675V194.693L-338.386 241.633C-337.849 242.754 -336.523 242.754 -335.985 241.633L-313.573 194.693V240.675C-313.573 241.556 -312.817 242.591 -311.972 242.591H-286.359C-285.437 242.591 -284.758 241.556 -284.758 240.675V187.987C-284.758 187.107 -285.437 186.071 -286.359 186.071Z" fill="#D8C7C7"/>
<path d="M-208.717 239.717L-234.331 187.029C-234.561 186.469 -235.317 186.071 -235.932 186.071H-260.745C-261.359 186.071 -262.039 186.549 -262.346 187.029L-275.153 213.852C-275.153 213.772 -275.229 213.852 -275.153 213.852L-287.959 239.717C-288.343 240.518 -287.927 242.191 -287.159 242.591C-286.391 242.992 -285.219 242.434 -284.758 241.633L-272.751 215.768H-249.539L-237.533 241.633C-237.456 241.954 -236.963 242.431 -236.732 242.591C-236.502 242.751 -236.162 242.591 -235.932 242.591H-210.318C-209.704 242.591 -209.825 242.114 -209.518 241.633C-209.21 241.153 -208.487 240.198 -208.717 239.717ZM-271.15 212.894L-260.745 191.819L-251.14 212.894H-271.15Z" fill="#D8C7C7"/>
<path d="M-144.683 215.768C-138.001 214.568 -132.677 208.683 -132.677 201.399C-132.677 193.234 -139.25 186.071 -147.084 186.071H-210.318C-211.163 186.071 -211.919 187.107 -211.919 187.987V240.675C-211.919 241.556 -211.163 242.591 -210.318 242.591H-184.704C-183.86 242.591 -183.104 241.556 -183.104 240.675V215.768H-147.885L-135.878 241.633C-135.571 242.194 -134.815 242.591 -134.277 242.591C-134.047 242.591 -133.707 242.751 -133.477 242.591C-132.709 242.191 -132.293 240.518 -132.677 239.717L-144.683 215.768ZM-183.104 212.894V189.903H-147.084C-141.017 189.903 -135.878 194.995 -135.878 201.399C-135.878 207.722 -141.017 212.894 -147.084 212.894H-183.104Z" fill="#D8C7C7"/>
<path d="M-74.2455 206.188H-90.254C-94.6317 206.188 -97.4579 202.049 -97.4579 197.567C-97.4579 193.004 -94.6317 189.903 -90.254 189.903H-71.0438C-70.1989 189.903 -69.4429 188.868 -69.4429 187.987C-69.4429 187.107 -70.1989 186.071 -71.0438 186.071H-115.067C-121.135 186.071 -126.273 191.163 -126.273 197.567C-126.273 203.89 -121.135 209.062 -115.067 209.062H-99.0587C-91.2248 209.062 -85.4514 216.225 -85.4514 224.39C-85.4514 232.554 -91.2248 238.759 -99.0587 238.759H-134.277C-135.122 238.759 -135.878 239.795 -135.878 240.675C-135.878 241.556 -135.122 242.591 -134.277 242.591H-74.2455C-64.6452 242.591 -56.6361 234.395 -56.6361 224.39C-56.6361 214.384 -64.6452 206.188 -74.2455 206.188Z" fill="#D8C7C7"/>
<path d="M34.6126 186.071H-28.6211C-29.466 186.071 -30.222 187.107 -30.222 187.987V240.675C-30.222 241.556 -29.466 242.591 -28.6211 242.591H-3.80789C-2.96307 242.591 -2.20703 241.556 -2.20703 240.675V215.768H34.6126C42.5233 215.768 48.2198 209.563 48.2198 201.399C48.2198 193.234 42.5233 186.071 34.6126 186.071ZM34.6126 212.894H-2.20703V189.903H34.6126C40.7568 189.903 45.0182 194.995 45.0182 201.399C45.0182 207.802 40.7568 212.894 34.6126 212.894Z" fill="#D8C7C7"/>
<path d="M117.057 238.759H69.0309L93.0438 188.945C93.1974 188.705 93.0438 188.227 93.0438 187.987C93.0438 188.067 93.0438 187.907 93.0438 187.987C93.0438 187.827 93.1206 187.189 93.0438 187.029C93.1206 187.109 93.0438 186.949 93.0438 187.029C92.8902 186.869 92.397 186.231 92.2433 186.071C92.0129 185.911 91.6733 186.071 91.4429 186.071H66.6297C66.0921 186.071 65.336 186.469 65.0288 187.029L39.4152 239.717C39.108 240.198 39.108 241.153 39.4152 241.633C39.6456 242.114 40.4784 242.591 41.016 242.591H117.057C117.978 242.591 118.657 241.556 118.657 240.675C118.657 239.795 117.978 238.759 117.057 238.759Z" fill="#D8C7C7"/>
<path d="M181.891 239.717L157.078 187.029C156.848 186.469 156.091 186.071 155.477 186.071H129.863C129.249 186.071 129.37 186.549 129.063 187.029L116.256 213.852C116.256 213.772 116.179 213.852 116.256 213.852L103.449 239.717C103.065 240.518 103.482 242.191 104.25 242.591C105.018 242.992 106.19 242.434 106.651 241.633L118.657 215.768H141.87L153.876 241.633C153.953 241.954 154.446 242.431 154.677 242.591C154.907 242.751 155.247 242.591 155.477 242.591H180.29C180.905 242.591 181.584 242.114 181.891 241.633C182.198 241.153 182.122 240.198 181.891 239.717ZM120.258 212.894L129.863 191.819L140.269 212.894H120.258Z" fill="#D8C7C7"/>
<path d="M257.932 187.029C257.624 186.549 257.669 186.071 257.131 186.071H231.518C231.287 186.071 230.871 185.991 230.717 186.071C230.794 186.071 230.64 186.151 230.717 186.071C230.564 186.231 230.07 186.789 229.917 187.029L207.505 233.97V187.987C207.505 187.267 207.472 186.231 206.704 186.071C206.013 185.911 205.411 186.309 205.104 187.029L179.49 239.717C179.106 240.518 179.522 242.191 180.29 242.591C180.521 242.751 180.86 242.591 181.091 242.591C181.705 242.591 182.384 242.194 182.692 241.633L204.303 194.693V240.675C204.303 240.595 204.303 240.755 204.303 240.675C204.38 240.916 204.95 241.393 205.104 241.633C205.18 241.873 204.873 242.511 205.104 242.591C205.18 242.671 205.827 242.591 205.904 242.591C205.75 242.591 205.981 242.671 205.904 242.591H231.518C232.132 242.591 232.888 242.194 233.118 241.633L257.932 188.945C258.162 188.465 258.239 187.509 257.932 187.029Z" fill="#D8C7C7"/>
<path d="M320.365 238.759H272.339L283.545 215.768H308.359C309.203 215.768 309.959 214.813 309.959 213.852C309.959 212.972 309.203 212.894 308.359 212.894H285.146L296.352 189.903H308.359C309.203 189.903 309.959 188.868 309.959 187.987C309.959 187.107 309.203 186.071 308.359 186.071H269.938C269.4 186.071 268.644 186.469 268.337 187.029L243.524 239.717C243.217 240.198 243.217 241.153 243.524 241.633C243.754 242.114 244.587 242.591 245.125 242.591H320.365C321.287 242.591 321.966 241.556 321.966 240.675C321.966 239.795 321.287 238.759 320.365 238.759Z" fill="#D8C7C7"/>
<path d="M384.399 186.071H308.359C307.514 186.071 306.758 187.107 306.758 187.987C306.758 188.868 307.514 189.903 308.359 189.903H332.371V240.675C332.371 241.556 333.051 242.591 333.972 242.591H358.785C359.63 242.591 360.386 241.556 360.386 240.675V189.903H384.399C385.321 189.903 386 188.868 386 187.987C386 187.107 385.321 186.071 384.399 186.071Z" fill="#D8C7C7"/>
</g>
<g filter="url(#filter6_d_443_229)">
<path d="M1319.64 186.071H1294.03C1293.87 186.071 1293.46 185.991 1293.23 186.071C1293 186.151 1293.38 186.949 1293.23 187.029C1293.15 187.189 1292.43 186.869 1292.43 187.029L1269.21 236.843L1245.2 187.029C1244.82 186.309 1243.57 185.911 1242.8 186.071C1242.11 186.231 1242 187.267 1242 187.987V240.675C1242 241.556 1242.76 242.591 1243.6 242.591C1244.45 242.591 1245.2 241.556 1245.2 240.675V194.693L1267.61 241.633C1268.15 242.754 1269.48 242.754 1270.01 241.633L1292.43 194.693V240.675C1292.43 241.556 1293.18 242.591 1294.03 242.591H1319.64C1320.56 242.591 1321.24 241.556 1321.24 240.675V187.987C1321.24 187.107 1320.56 186.071 1319.64 186.071Z" fill="#D8C7C7"/>
<path d="M1397.28 239.717L1371.67 187.029C1371.44 186.469 1370.68 186.071 1370.07 186.071H1345.26C1344.64 186.071 1343.96 186.549 1343.65 187.029L1330.85 213.852C1330.85 213.772 1330.77 213.852 1330.85 213.852L1318.04 239.717C1317.66 240.518 1318.07 242.191 1318.84 242.591C1319.61 242.992 1320.78 242.434 1321.24 241.633L1333.25 215.768H1356.46L1368.47 241.633C1368.54 241.954 1369.04 242.431 1369.27 242.591C1369.5 242.751 1369.84 242.591 1370.07 242.591H1395.68C1396.3 242.591 1396.18 242.114 1396.48 241.633C1396.79 241.153 1397.51 240.198 1397.28 239.717ZM1334.85 212.894L1345.26 191.819L1354.86 212.894H1334.85Z" fill="#D8C7C7"/>
<path d="M1461.32 215.768C1468 214.568 1473.32 208.683 1473.32 201.399C1473.32 193.234 1466.75 186.071 1458.92 186.071H1395.68C1394.84 186.071 1394.08 187.107 1394.08 187.987V240.675C1394.08 241.556 1394.84 242.591 1395.68 242.591H1421.3C1422.14 242.591 1422.9 241.556 1422.9 240.675V215.768H1458.12L1470.12 241.633C1470.43 242.194 1471.18 242.591 1471.72 242.591C1471.95 242.591 1472.29 242.751 1472.52 242.591C1473.29 242.191 1473.71 240.518 1473.32 239.717L1461.32 215.768ZM1422.9 212.894V189.903H1458.92C1464.98 189.903 1470.12 194.995 1470.12 201.399C1470.12 207.722 1464.98 212.894 1458.92 212.894H1422.9Z" fill="#D8C7C7"/>
<path d="M1531.75 206.188H1515.75C1511.37 206.188 1508.54 202.049 1508.54 197.567C1508.54 193.004 1511.37 189.903 1515.75 189.903H1534.96C1535.8 189.903 1536.56 188.868 1536.56 187.987C1536.56 187.107 1535.8 186.071 1534.96 186.071H1490.93C1484.87 186.071 1479.73 191.163 1479.73 197.567C1479.73 203.89 1484.87 209.062 1490.93 209.062H1506.94C1514.78 209.062 1520.55 216.225 1520.55 224.39C1520.55 232.554 1514.78 238.759 1506.94 238.759H1471.72C1470.88 238.759 1470.12 239.795 1470.12 240.675C1470.12 241.556 1470.88 242.591 1471.72 242.591H1531.75C1541.35 242.591 1549.36 234.395 1549.36 224.39C1549.36 214.384 1541.35 206.188 1531.75 206.188Z" fill="#D8C7C7"/>
<path d="M1640.61 186.071H1577.38C1576.53 186.071 1575.78 187.107 1575.78 187.987V240.675C1575.78 241.556 1576.53 242.591 1577.38 242.591H1602.19C1603.04 242.591 1603.79 241.556 1603.79 240.675V215.768H1640.61C1648.52 215.768 1654.22 209.563 1654.22 201.399C1654.22 193.234 1648.52 186.071 1640.61 186.071ZM1640.61 212.894H1603.79V189.903H1640.61C1646.76 189.903 1651.02 194.995 1651.02 201.399C1651.02 207.802 1646.76 212.894 1640.61 212.894Z" fill="#D8C7C7"/>
<path d="M1723.06 238.759H1675.03L1699.04 188.945C1699.2 188.705 1699.04 188.227 1699.04 187.987C1699.04 188.067 1699.04 187.907 1699.04 187.987C1699.04 187.827 1699.12 187.189 1699.04 187.029C1699.12 187.109 1699.04 186.949 1699.04 187.029C1698.89 186.869 1698.4 186.231 1698.24 186.071C1698.01 185.911 1697.67 186.071 1697.44 186.071H1672.63C1672.09 186.071 1671.34 186.469 1671.03 187.029L1645.42 239.717C1645.11 240.198 1645.11 241.153 1645.42 241.633C1645.65 242.114 1646.48 242.591 1647.02 242.591H1723.06C1723.98 242.591 1724.66 241.556 1724.66 240.675C1724.66 239.795 1723.98 238.759 1723.06 238.759Z" fill="#D8C7C7"/>
<path d="M1787.89 239.717L1763.08 187.029C1762.85 186.469 1762.09 186.071 1761.48 186.071H1735.86C1735.25 186.071 1735.37 186.549 1735.06 187.029L1722.26 213.852C1722.26 213.772 1722.18 213.852 1722.26 213.852L1709.45 239.717C1709.07 240.518 1709.48 242.191 1710.25 242.591C1711.02 242.992 1712.19 242.434 1712.65 241.633L1724.66 215.768H1747.87L1759.88 241.633C1759.95 241.954 1760.45 242.431 1760.68 242.591C1760.91 242.751 1761.25 242.591 1761.48 242.591H1786.29C1786.9 242.591 1787.58 242.114 1787.89 241.633C1788.2 241.153 1788.12 240.198 1787.89 239.717ZM1726.26 212.894L1735.86 191.819L1746.27 212.894H1726.26Z" fill="#D8C7C7"/>
<path d="M1863.93 187.029C1863.62 186.549 1863.67 186.071 1863.13 186.071H1837.52C1837.29 186.071 1836.87 185.991 1836.72 186.071C1836.79 186.071 1836.64 186.151 1836.72 186.071C1836.56 186.231 1836.07 186.789 1835.92 187.029L1813.5 233.97V187.987C1813.5 187.267 1813.47 186.231 1812.7 186.071C1812.01 185.911 1811.41 186.309 1811.1 187.029L1785.49 239.717C1785.11 240.518 1785.52 242.191 1786.29 242.591C1786.52 242.751 1786.86 242.591 1787.09 242.591C1787.71 242.591 1788.38 242.194 1788.69 241.633L1810.3 194.693V240.675C1810.3 240.595 1810.3 240.755 1810.3 240.675C1810.38 240.916 1810.95 241.393 1811.1 241.633C1811.18 241.873 1810.87 242.511 1811.1 242.591C1811.18 242.671 1811.83 242.591 1811.9 242.591C1811.75 242.591 1811.98 242.671 1811.9 242.591H1837.52C1838.13 242.591 1838.89 242.194 1839.12 241.633L1863.93 188.945C1864.16 188.465 1864.24 187.509 1863.93 187.029Z" fill="#D8C7C7"/>
<path d="M1926.36 238.759H1878.34L1889.55 215.768H1914.36C1915.2 215.768 1915.96 214.813 1915.96 213.852C1915.96 212.972 1915.2 212.894 1914.36 212.894H1891.15L1902.35 189.903H1914.36C1915.2 189.903 1915.96 188.868 1915.96 187.987C1915.96 187.107 1915.2 186.071 1914.36 186.071H1875.94C1875.4 186.071 1874.64 186.469 1874.34 187.029L1849.52 239.717C1849.22 240.198 1849.22 241.153 1849.52 241.633C1849.75 242.114 1850.59 242.591 1851.12 242.591H1926.36C1927.29 242.591 1927.97 241.556 1927.97 240.675C1927.97 239.795 1927.29 238.759 1926.36 238.759Z" fill="#D8C7C7"/>
<path d="M1990.4 186.071H1914.36C1913.51 186.071 1912.76 187.107 1912.76 187.987C1912.76 188.868 1913.51 189.903 1914.36 189.903H1938.37V240.675C1938.37 241.556 1939.05 242.591 1939.97 242.591H1964.79C1965.63 242.591 1966.39 241.556 1966.39 240.675V189.903H1990.4C1991.32 189.903 1992 188.868 1992 187.987C1992 187.107 1991.32 186.071 1990.4 186.071Z" fill="#D8C7C7"/>
</g>
<g filter="url(#filter7_d_443_229)">
<path d="M-102.359 93.0712H-127.972V93.0712C-128.126 93.0712 -128.542 92.9911 -128.773 93.0712C-129.003 93.1512 -128.619 93.9491 -128.773 94.0291C-128.773 94.1092 -128.773 94.0291 -128.773 94.0291C-128.849 94.1892 -129.573 93.869 -129.573 94.0291L-152.785 143.843L-176.798 94.0291C-177.182 93.3087 -178.432 92.9111 -179.2 93.0712C-179.891 93.2312 -180 94.2667 -180 94.9871V147.675C-180 148.556 -179.244 149.591 -178.399 149.591C-177.554 149.591 -176.798 148.556 -176.798 147.675V101.693L-154.386 148.633C-153.849 149.754 -152.523 149.754 -151.985 148.633L-129.573 101.693V147.675C-129.573 148.556 -128.817 149.591 -127.972 149.591H-102.359C-101.437 149.591 -100.758 148.556 -100.758 147.675V94.9871C-100.758 94.1066 -101.437 93.0712 -102.359 93.0712Z" fill="#911515"/>
<path d="M-24.7172 146.717L-50.3308 94.0291C-50.5613 93.4688 -51.3173 93.0712 -51.9317 93.0712H-76.7449C-77.3593 93.0712 -78.0386 93.5489 -78.3458 94.0291C-78.3458 94.1092 -78.3458 94.0291 -78.3458 94.0291C-78.3458 94.1092 -78.3458 94.0291 -78.3458 94.0291L-91.1526 120.852C-91.2294 120.852 -91.1526 120.772 -91.1526 120.852L-103.959 146.717C-104.343 147.518 -103.927 149.191 -103.159 149.591C-102.391 149.992 -101.219 149.434 -100.758 148.633L-88.7513 122.768H-65.539L-53.5325 148.633C-53.4557 148.954 -52.9625 149.431 -52.7321 149.591C-52.5017 149.751 -52.1621 149.591 -51.9317 149.591H-26.318C-25.7036 149.591 -25.8248 149.114 -25.5176 148.633C-25.2104 148.153 -24.4868 147.198 -24.7172 146.717ZM-87.1505 119.894L-76.7449 98.819L-67.1398 119.894H-87.1505Z" fill="#911515"/>
<path d="M39.317 122.768C45.9988 121.568 51.3234 115.683 51.3234 108.399C51.3234 100.234 44.7495 93.0712 36.9157 93.0712H-26.318C-27.1629 93.0712 -27.9189 94.1066 -27.9189 94.9871V147.675C-27.9189 148.556 -27.1629 149.591 -26.318 149.591H-0.704374C0.140452 149.591 0.896479 148.556 0.896479 147.675V122.768H36.1153L48.1217 148.633C48.4289 149.194 49.1849 149.591 49.7225 149.591C49.9529 149.591 50.2925 149.751 50.5229 149.591C51.291 149.191 51.7074 147.518 51.3234 146.717L39.317 122.768ZM0.896479 119.894V96.903H36.9157C42.9831 96.903 48.1217 101.995 48.1217 108.399C48.1217 114.722 42.9831 119.894 36.9157 119.894H0.896479Z" fill="#911515"/>
<path d="M109.755 113.188H93.746C89.3683 113.188 86.5422 109.049 86.5422 104.567C86.5422 100.004 89.3683 96.903 93.746 96.903H112.956C113.801 96.903 114.557 95.8676 114.557 94.9871C114.557 94.1066 113.801 93.0712 112.956 93.0712H68.9328C62.8654 93.0712 57.7268 98.1633 57.7268 104.567C57.7268 110.89 62.8654 116.062 68.9328 116.062H84.9413C92.7751 116.062 98.5486 123.225 98.5486 131.39C98.5486 139.554 92.7751 145.759 84.9413 145.759H49.7225C48.8777 145.759 48.1217 146.795 48.1217 147.675C48.1217 148.556 48.8777 149.591 49.7225 149.591H109.755C119.355 149.591 127.364 141.395 127.364 131.39C127.364 121.384 119.355 113.188 109.755 113.188Z" fill="#911515"/>
<path d="M218.613 93.0712H155.379C154.534 93.0712 153.778 94.1066 153.778 94.9871V147.675C153.778 148.556 154.534 149.591 155.379 149.591H180.192C181.037 149.591 181.793 148.556 181.793 147.675V122.768H218.613C226.523 122.768 232.22 116.563 232.22 108.399C232.22 100.234 226.523 93.0712 218.613 93.0712ZM218.613 119.894H181.793V96.903H218.613C224.757 96.903 229.018 101.995 229.018 108.399C229.018 114.802 224.757 119.894 218.613 119.894Z" fill="#911515"/>
<path d="M301.057 145.759H253.031L277.044 95.9451C277.197 95.7049 277.044 95.2272 277.044 94.9871C277.044 94.907 277.044 95.0671 277.044 94.9871C277.044 94.827 277.121 94.1892 277.044 94.0291C277.044 93.9491 277.121 94.1092 277.044 94.0291C277.044 94.0291 277.044 94.1092 277.044 94.0291C276.89 93.869 276.397 93.2312 276.243 93.0712V93.0712C276.167 93.0712 276.243 93.0712 276.243 93.0712C276.013 92.9111 275.673 93.0712 275.443 93.0712V93.0712H250.63C250.092 93.0712 249.336 93.4688 249.029 94.0291L223.415 146.717C223.108 147.198 223.108 148.153 223.415 148.633C223.646 149.114 224.478 149.591 225.016 149.591H301.057C301.978 149.591 302.657 148.556 302.657 147.675C302.657 146.795 301.978 145.759 301.057 145.759Z" fill="#911515"/>
<path d="M365.891 146.717L341.078 94.0291C340.848 93.4688 340.091 93.0712 339.477 93.0712H313.863C313.249 93.0712 313.37 93.5489 313.063 94.0291C313.063 94.1092 313.063 94.0291 313.063 94.0291C313.063 94.1092 313.063 94.0291 313.063 94.0291L300.256 120.852C300.179 120.852 300.256 120.772 300.256 120.852L287.449 146.717C287.065 147.518 287.482 149.191 288.25 149.591C289.018 149.992 290.19 149.434 290.651 148.633L302.657 122.768H325.87L337.876 148.633C337.953 148.954 338.446 149.431 338.677 149.591C338.907 149.751 339.247 149.591 339.477 149.591H364.29C364.905 149.591 365.584 149.114 365.891 148.633C366.198 148.153 366.122 147.198 365.891 146.717ZM304.258 119.894L313.863 98.819L324.269 119.894H304.258Z" fill="#911515"/>
<path d="M441.932 94.0291C441.624 93.5489 441.669 93.0712 441.131 93.0712H415.518C415.441 93.0712 415.518 93.0712 415.518 93.0712C415.287 93.0712 414.871 92.9911 414.717 93.0712C414.64 93.1512 414.794 93.0712 414.717 93.0712C414.564 93.2312 414.07 93.789 413.917 94.0291L391.505 140.97V94.9871C391.505 94.2667 391.472 93.2312 390.704 93.0712C390.013 92.9111 389.411 93.3087 389.104 94.0291L363.49 146.717C363.106 147.518 363.522 149.191 364.29 149.591C364.521 149.751 364.86 149.591 365.091 149.591C365.705 149.591 366.384 149.194 366.692 148.633L388.303 101.693V147.675C388.303 147.755 388.303 147.595 388.303 147.675C388.38 147.916 388.95 148.393 389.104 148.633C389.104 148.633 389.104 148.553 389.104 148.633C389.104 148.633 389.027 148.633 389.104 148.633C389.18 148.873 388.873 149.511 389.104 149.591C389.18 149.671 389.827 149.591 389.904 149.591C389.981 149.671 389.75 149.591 389.904 149.591C389.981 149.591 389.827 149.591 389.904 149.591C389.981 149.591 389.827 149.591 389.904 149.591H415.518C416.132 149.591 416.888 149.194 417.118 148.633L441.932 95.9451C442.162 95.4648 442.239 94.5094 441.932 94.0291Z" fill="#911515"/>
<path d="M504.365 145.759H456.339L467.545 122.768H492.359C493.203 122.768 493.959 121.813 493.959 120.852C493.959 119.972 493.203 119.894 492.359 119.894H469.146L480.352 96.903H492.359C493.203 96.903 493.959 95.8676 493.959 94.9871C493.959 94.1066 493.203 93.0712 492.359 93.0712H453.938C453.4 93.0712 452.644 93.4688 452.337 94.0291L427.524 146.717C427.217 147.198 427.217 148.153 427.524 148.633C427.754 149.114 428.587 149.591 429.125 149.591H504.365C505.287 149.591 505.966 148.556 505.966 147.675C505.966 146.795 505.287 145.759 504.365 145.759Z" fill="#911515"/>
<path d="M568.399 93.0712H492.359C491.514 93.0712 490.758 94.1066 490.758 94.9871C490.758 95.8676 491.514 96.903 492.359 96.903H516.371V147.675C516.371 148.556 517.051 149.591 517.972 149.591H542.785C543.63 149.591 544.386 148.556 544.386 147.675V96.903H568.399C569.321 96.903 570 95.8676 570 94.9871C570 94.1066 569.321 93.0712 568.399 93.0712Z" fill="#911515"/>
</g>
<g filter="url(#filter8_d_443_229)">
<path d="M731.641 93.0712H706.028V93.0712C705.874 93.0712 705.458 92.9911 705.227 93.0712C704.997 93.1512 705.381 93.9491 705.227 94.0291C705.227 94.1092 705.227 94.0291 705.227 94.0291C705.151 94.1892 704.427 93.869 704.427 94.0291L681.215 143.843L657.202 94.0291C656.818 93.3087 655.568 92.9111 654.8 93.0712C654.109 93.2312 654 94.2667 654 94.9871V147.675C654 148.556 654.756 149.591 655.601 149.591C656.446 149.591 657.202 148.556 657.202 147.675V101.693L679.614 148.633C680.151 149.754 681.477 149.754 682.015 148.633L704.427 101.693V147.675C704.427 148.556 705.183 149.591 706.028 149.591H731.641C732.563 149.591 733.242 148.556 733.242 147.675V94.9871C733.242 94.1066 732.563 93.0712 731.641 93.0712Z" fill="#D8C7C7"/>
<path d="M809.283 146.717L783.669 94.0291C783.439 93.4688 782.683 93.0712 782.068 93.0712H757.255C756.641 93.0712 755.961 93.5489 755.654 94.0291C755.654 94.1092 755.654 94.0291 755.654 94.0291C755.654 94.1092 755.654 94.0291 755.654 94.0291L742.847 120.852C742.771 120.852 742.847 120.772 742.847 120.852L730.041 146.717C729.657 147.518 730.073 149.191 730.841 149.591C731.609 149.992 732.781 149.434 733.242 148.633L745.249 122.768H768.461L780.467 148.633C780.544 148.954 781.037 149.431 781.268 149.591C781.498 149.751 781.838 149.591 782.068 149.591H807.682C808.296 149.591 808.175 149.114 808.482 148.633C808.79 148.153 809.513 147.198 809.283 146.717ZM746.85 119.894L757.255 98.819L766.86 119.894H746.85Z" fill="#D8C7C7"/>
<path d="M873.317 122.768C879.999 121.568 885.323 115.683 885.323 108.399C885.323 100.234 878.75 93.0712 870.916 93.0712H807.682C806.837 93.0712 806.081 94.1066 806.081 94.9871V147.675C806.081 148.556 806.837 149.591 807.682 149.591H833.296C834.14 149.591 834.896 148.556 834.896 147.675V122.768H870.115L882.122 148.633C882.429 149.194 883.185 149.591 883.723 149.591C883.953 149.591 884.293 149.751 884.523 149.591C885.291 149.191 885.707 147.518 885.323 146.717L873.317 122.768ZM834.896 119.894V96.903H870.916C876.983 96.903 882.122 101.995 882.122 108.399C882.122 114.722 876.983 119.894 870.916 119.894H834.896Z" fill="#D8C7C7"/>
<path d="M943.755 113.188H927.746C923.368 113.188 920.542 109.049 920.542 104.567C920.542 100.004 923.368 96.903 927.746 96.903H946.956C947.801 96.903 948.557 95.8676 948.557 94.9871C948.557 94.1066 947.801 93.0712 946.956 93.0712H902.933C896.865 93.0712 891.727 98.1633 891.727 104.567C891.727 110.89 896.865 116.062 902.933 116.062H918.941C926.775 116.062 932.549 123.225 932.549 131.39C932.549 139.554 926.775 145.759 918.941 145.759H883.723C882.878 145.759 882.122 146.795 882.122 147.675C882.122 148.556 882.878 149.591 883.723 149.591H943.755C953.355 149.591 961.364 141.395 961.364 131.39C961.364 121.384 953.355 113.188 943.755 113.188Z" fill="#D8C7C7"/>
<path d="M1052.61 93.0712H989.379C988.534 93.0712 987.778 94.1066 987.778 94.9871V147.675C987.778 148.556 988.534 149.591 989.379 149.591H1014.19C1015.04 149.591 1015.79 148.556 1015.79 147.675V122.768H1052.61C1060.52 122.768 1066.22 116.563 1066.22 108.399C1066.22 100.234 1060.52 93.0712 1052.61 93.0712ZM1052.61 119.894H1015.79V96.903H1052.61C1058.76 96.903 1063.02 101.995 1063.02 108.399C1063.02 114.802 1058.76 119.894 1052.61 119.894Z" fill="#D8C7C7"/>
<path d="M1135.06 145.759H1087.03L1111.04 95.9451C1111.2 95.7049 1111.04 95.2272 1111.04 94.9871C1111.04 94.907 1111.04 95.0671 1111.04 94.9871C1111.04 94.827 1111.12 94.1892 1111.04 94.0291C1111.04 93.9491 1111.12 94.1092 1111.04 94.0291C1111.04 94.0291 1111.04 94.1092 1111.04 94.0291C1110.89 93.869 1110.4 93.2312 1110.24 93.0712V93.0712C1110.17 93.0712 1110.24 93.0712 1110.24 93.0712C1110.01 92.9111 1109.67 93.0712 1109.44 93.0712V93.0712H1084.63C1084.09 93.0712 1083.34 93.4688 1083.03 94.0291L1057.42 146.717C1057.11 147.198 1057.11 148.153 1057.42 148.633C1057.65 149.114 1058.48 149.591 1059.02 149.591H1135.06C1135.98 149.591 1136.66 148.556 1136.66 147.675C1136.66 146.795 1135.98 145.759 1135.06 145.759Z" fill="#D8C7C7"/>
<path d="M1199.89 146.717L1175.08 94.0291C1174.85 93.4688 1174.09 93.0712 1173.48 93.0712H1147.86C1147.25 93.0712 1147.37 93.5489 1147.06 94.0291C1147.06 94.1092 1147.06 94.0291 1147.06 94.0291C1147.06 94.1092 1147.06 94.0291 1147.06 94.0291L1134.26 120.852C1134.18 120.852 1134.26 120.772 1134.26 120.852L1121.45 146.717C1121.07 147.518 1121.48 149.191 1122.25 149.591C1123.02 149.992 1124.19 149.434 1124.65 148.633L1136.66 122.768H1159.87L1171.88 148.633C1171.95 148.954 1172.45 149.431 1172.68 149.591C1172.91 149.751 1173.25 149.591 1173.48 149.591H1198.29C1198.9 149.591 1199.58 149.114 1199.89 148.633C1200.2 148.153 1200.12 147.198 1199.89 146.717ZM1138.26 119.894L1147.86 98.819L1158.27 119.894H1138.26Z" fill="#D8C7C7"/>
<path d="M1275.93 94.0291C1275.62 93.5489 1275.67 93.0712 1275.13 93.0712H1249.52C1249.44 93.0712 1249.52 93.0712 1249.52 93.0712C1249.29 93.0712 1248.87 92.9911 1248.72 93.0712C1248.64 93.1512 1248.79 93.0712 1248.72 93.0712C1248.56 93.2312 1248.07 93.789 1247.92 94.0291L1225.5 140.97V94.9871C1225.5 94.2667 1225.47 93.2312 1224.7 93.0712C1224.01 92.9111 1223.41 93.3087 1223.1 94.0291L1197.49 146.717C1197.11 147.518 1197.52 149.191 1198.29 149.591C1198.52 149.751 1198.86 149.591 1199.09 149.591C1199.71 149.591 1200.38 149.194 1200.69 148.633L1222.3 101.693V147.675C1222.3 147.755 1222.3 147.595 1222.3 147.675C1222.38 147.916 1222.95 148.393 1223.1 148.633C1223.1 148.633 1223.1 148.553 1223.1 148.633C1223.1 148.633 1223.03 148.633 1223.1 148.633C1223.18 148.873 1222.87 149.511 1223.1 149.591C1223.18 149.671 1223.83 149.591 1223.9 149.591C1223.98 149.671 1223.75 149.591 1223.9 149.591C1223.98 149.591 1223.83 149.591 1223.9 149.591C1223.98 149.591 1223.83 149.591 1223.9 149.591H1249.52C1250.13 149.591 1250.89 149.194 1251.12 148.633L1275.93 95.9451C1276.16 95.4648 1276.24 94.5094 1275.93 94.0291Z" fill="#D8C7C7"/>
<path d="M1338.36 145.759H1290.34L1301.55 122.768H1326.36C1327.2 122.768 1327.96 121.813 1327.96 120.852C1327.96 119.972 1327.2 119.894 1326.36 119.894H1303.15L1314.35 96.903H1326.36C1327.2 96.903 1327.96 95.8676 1327.96 94.9871C1327.96 94.1066 1327.2 93.0712 1326.36 93.0712H1287.94C1287.4 93.0712 1286.64 93.4688 1286.34 94.0291L1261.52 146.717C1261.22 147.198 1261.22 148.153 1261.52 148.633C1261.75 149.114 1262.59 149.591 1263.12 149.591H1338.36C1339.29 149.591 1339.97 148.556 1339.97 147.675C1339.97 146.795 1339.29 145.759 1338.36 145.759Z" fill="#D8C7C7"/>
<path d="M1402.4 93.0712H1326.36C1325.51 93.0712 1324.76 94.1066 1324.76 94.9871C1324.76 95.8676 1325.51 96.903 1326.36 96.903H1350.37V147.675C1350.37 148.556 1351.05 149.591 1351.97 149.591H1376.79C1377.63 149.591 1378.39 148.556 1378.39 147.675V96.903H1402.4C1403.32 96.903 1404 95.8676 1404 94.9871C1404 94.1066 1403.32 93.0712 1402.4 93.0712Z" fill="#D8C7C7"/>
</g>
<g filter="url(#filter9_d_443_229)">
<path d="M629.2 120.759C629.2 134.617 618.293 145.717 605 145.717C591.707 145.717 580.8 134.617 580.8 120.759C580.8 106.901 591.707 95.8 605 95.8C618.293 95.8 629.2 106.901 629.2 120.759Z" stroke="#911515" stroke-width="5.6"/>
<ellipse cx="596.5" cy="100.242" rx="4.5" ry="4.82759" fill="#911515"/>
<ellipse cx="618" cy="105.07" rx="3" ry="3.62069" fill="#911515"/>
<ellipse cx="620" cy="119.551" rx="2" ry="1.2069" fill="#911515"/>
<ellipse cx="615" cy="140.07" rx="3" ry="3.62069" fill="#911515"/>
<ellipse cx="593" cy="126.189" rx="5" ry="5.43103" fill="#911515"/>
<ellipse cx="610" cy="120.757" rx="3" ry="3.62069" fill="#911515"/>
<ellipse cx="605" cy="110.5" rx="2" ry="1.81034" fill="#911515"/>
<ellipse cx="592" cy="111.103" rx="1" ry="1.2069" fill="#911515"/>
<ellipse cx="602.5" cy="134.035" rx="1.5" ry="1.2069" fill="#911515"/>
</g>
<g filter="url(#filter10_d_443_229)">
<path d="M1503.64 93.0712H1478.03V93.0712C1477.87 93.0712 1477.46 92.9911 1477.23 93.0712C1477 93.1512 1477.38 93.9491 1477.23 94.0291C1477.23 94.1092 1477.23 94.0291 1477.23 94.0291C1477.15 94.1892 1476.43 93.869 1476.43 94.0291L1453.21 143.843L1429.2 94.0291C1428.82 93.3087 1427.57 92.9111 1426.8 93.0712C1426.11 93.2312 1426 94.2667 1426 94.9871V147.675C1426 148.556 1426.76 149.591 1427.6 149.591C1428.45 149.591 1429.2 148.556 1429.2 147.675V101.693L1451.61 148.633C1452.15 149.754 1453.48 149.754 1454.01 148.633L1476.43 101.693V147.675C1476.43 148.556 1477.18 149.591 1478.03 149.591H1503.64C1504.56 149.591 1505.24 148.556 1505.24 147.675V94.9871C1505.24 94.1066 1504.56 93.0712 1503.64 93.0712Z" fill="#911515"/>
<path d="M1581.28 146.717L1555.67 94.0291C1555.44 93.4688 1554.68 93.0712 1554.07 93.0712H1529.26C1528.64 93.0712 1527.96 93.5489 1527.65 94.0291C1527.65 94.1092 1527.65 94.0291 1527.65 94.0291C1527.65 94.1092 1527.65 94.0291 1527.65 94.0291L1514.85 120.852C1514.77 120.852 1514.85 120.772 1514.85 120.852L1502.04 146.717C1501.66 147.518 1502.07 149.191 1502.84 149.591C1503.61 149.992 1504.78 149.434 1505.24 148.633L1517.25 122.768H1540.46L1552.47 148.633C1552.54 148.954 1553.04 149.431 1553.27 149.591C1553.5 149.751 1553.84 149.591 1554.07 149.591H1579.68C1580.3 149.591 1580.18 149.114 1580.48 148.633C1580.79 148.153 1581.51 147.198 1581.28 146.717ZM1518.85 119.894L1529.26 98.819L1538.86 119.894H1518.85Z" fill="#911515"/>
<path d="M1645.32 122.768C1652 121.568 1657.32 115.683 1657.32 108.399C1657.32 100.234 1650.75 93.0712 1642.92 93.0712H1579.68C1578.84 93.0712 1578.08 94.1066 1578.08 94.9871V147.675C1578.08 148.556 1578.84 149.591 1579.68 149.591H1605.3C1606.14 149.591 1606.9 148.556 1606.9 147.675V122.768H1642.12L1654.12 148.633C1654.43 149.194 1655.18 149.591 1655.72 149.591C1655.95 149.591 1656.29 149.751 1656.52 149.591C1657.29 149.191 1657.71 147.518 1657.32 146.717L1645.32 122.768ZM1606.9 119.894V96.903H1642.92C1648.98 96.903 1654.12 101.995 1654.12 108.399C1654.12 114.722 1648.98 119.894 1642.92 119.894H1606.9Z" fill="#911515"/>
<path d="M1715.75 113.188H1699.75C1695.37 113.188 1692.54 109.049 1692.54 104.567C1692.54 100.004 1695.37 96.903 1699.75 96.903H1718.96C1719.8 96.903 1720.56 95.8676 1720.56 94.9871C1720.56 94.1066 1719.8 93.0712 1718.96 93.0712H1674.93C1668.87 93.0712 1663.73 98.1633 1663.73 104.567C1663.73 110.89 1668.87 116.062 1674.93 116.062H1690.94C1698.78 116.062 1704.55 123.225 1704.55 131.39C1704.55 139.554 1698.78 145.759 1690.94 145.759H1655.72C1654.88 145.759 1654.12 146.795 1654.12 147.675C1654.12 148.556 1654.88 149.591 1655.72 149.591H1715.75C1725.35 149.591 1733.36 141.395 1733.36 131.39C1733.36 121.384 1725.35 113.188 1715.75 113.188Z" fill="#911515"/>
<path d="M1824.61 93.0712H1761.38C1760.53 93.0712 1759.78 94.1066 1759.78 94.9871V147.675C1759.78 148.556 1760.53 149.591 1761.38 149.591H1786.19C1787.04 149.591 1787.79 148.556 1787.79 147.675V122.768H1824.61C1832.52 122.768 1838.22 116.563 1838.22 108.399C1838.22 100.234 1832.52 93.0712 1824.61 93.0712ZM1824.61 119.894H1787.79V96.903H1824.61C1830.76 96.903 1835.02 101.995 1835.02 108.399C1835.02 114.802 1830.76 119.894 1824.61 119.894Z" fill="#911515"/>
<path d="M1907.06 145.759H1859.03L1883.04 95.9451C1883.2 95.7049 1883.04 95.2272 1883.04 94.9871C1883.04 94.907 1883.04 95.0671 1883.04 94.9871C1883.04 94.827 1883.12 94.1892 1883.04 94.0291C1883.04 93.9491 1883.12 94.1092 1883.04 94.0291C1883.04 94.0291 1883.04 94.1092 1883.04 94.0291C1882.89 93.869 1882.4 93.2312 1882.24 93.0712V93.0712C1882.17 93.0712 1882.24 93.0712 1882.24 93.0712C1882.01 92.9111 1881.67 93.0712 1881.44 93.0712V93.0712H1856.63C1856.09 93.0712 1855.34 93.4688 1855.03 94.0291L1829.42 146.717C1829.11 147.198 1829.11 148.153 1829.42 148.633C1829.65 149.114 1830.48 149.591 1831.02 149.591H1907.06C1907.98 149.591 1908.66 148.556 1908.66 147.675C1908.66 146.795 1907.98 145.759 1907.06 145.759Z" fill="#911515"/>
<path d="M1971.89 146.717L1947.08 94.0291C1946.85 93.4688 1946.09 93.0712 1945.48 93.0712H1919.86C1919.25 93.0712 1919.37 93.5489 1919.06 94.0291C1919.06 94.1092 1919.06 94.0291 1919.06 94.0291C1919.06 94.1092 1919.06 94.0291 1919.06 94.0291L1906.26 120.852C1906.18 120.852 1906.26 120.772 1906.26 120.852L1893.45 146.717C1893.07 147.518 1893.48 149.191 1894.25 149.591C1895.02 149.992 1896.19 149.434 1896.65 148.633L1908.66 122.768H1931.87L1943.88 148.633C1943.95 148.954 1944.45 149.431 1944.68 149.591C1944.91 149.751 1945.25 149.591 1945.48 149.591H1970.29C1970.9 149.591 1971.58 149.114 1971.89 148.633C1972.2 148.153 1972.12 147.198 1971.89 146.717ZM1910.26 119.894L1919.86 98.819L1930.27 119.894H1910.26Z" fill="#911515"/>
<path d="M2047.93 94.0291C2047.62 93.5489 2047.67 93.0712 2047.13 93.0712H2021.52C2021.44 93.0712 2021.52 93.0712 2021.52 93.0712C2021.29 93.0712 2020.87 92.9911 2020.72 93.0712C2020.64 93.1512 2020.79 93.0712 2020.72 93.0712C2020.56 93.2312 2020.07 93.789 2019.92 94.0291L1997.5 140.97V94.9871C1997.5 94.2667 1997.47 93.2312 1996.7 93.0712C1996.01 92.9111 1995.41 93.3087 1995.1 94.0291L1969.49 146.717C1969.11 147.518 1969.52 149.191 1970.29 149.591C1970.52 149.751 1970.86 149.591 1971.09 149.591C1971.71 149.591 1972.38 149.194 1972.69 148.633L1994.3 101.693V147.675C1994.3 147.755 1994.3 147.595 1994.3 147.675C1994.38 147.916 1994.95 148.393 1995.1 148.633C1995.1 148.633 1995.1 148.553 1995.1 148.633C1995.1 148.633 1995.03 148.633 1995.1 148.633C1995.18 148.873 1994.87 149.511 1995.1 149.591C1995.18 149.671 1995.83 149.591 1995.9 149.591C1995.98 149.671 1995.75 149.591 1995.9 149.591C1995.98 149.591 1995.83 149.591 1995.9 149.591C1995.98 149.591 1995.83 149.591 1995.9 149.591H2021.52C2022.13 149.591 2022.89 149.194 2023.12 148.633L2047.93 95.9451C2048.16 95.4648 2048.24 94.5094 2047.93 94.0291Z" fill="#911515"/>
<path d="M2110.36 145.759H2062.34L2073.55 122.768H2098.36C2099.2 122.768 2099.96 121.813 2099.96 120.852C2099.96 119.972 2099.2 119.894 2098.36 119.894H2075.15L2086.35 96.903H2098.36C2099.2 96.903 2099.96 95.8676 2099.96 94.9871C2099.96 94.1066 2099.2 93.0712 2098.36 93.0712H2059.94C2059.4 93.0712 2058.64 93.4688 2058.34 94.0291L2033.52 146.717C2033.22 147.198 2033.22 148.153 2033.52 148.633C2033.75 149.114 2034.59 149.591 2035.12 149.591H2110.36C2111.29 149.591 2111.97 148.556 2111.97 147.675C2111.97 146.795 2111.29 145.759 2110.36 145.759Z" fill="#911515"/>
<path d="M2174.4 93.0712H2098.36C2097.51 93.0712 2096.76 94.1066 2096.76 94.9871C2096.76 95.8676 2097.51 96.903 2098.36 96.903H2122.37V147.675C2122.37 148.556 2123.05 149.591 2123.97 149.591H2148.79C2149.63 149.591 2150.39 148.556 2150.39 147.675V96.903H2174.4C2175.32 96.903 2176 95.8676 2176 94.9871C2176 94.1066 2175.32 93.0712 2174.4 93.0712Z" fill="#911515"/>
</g>
</g>
<defs>
<filter id="filter0_d_443_229" x="830.8" y="0" width="756.4" height="63.1246" filterUnits="userSpaceOnUse" color-interpolation-filters="sRGB">
<feFlood flood-opacity="0" result="BackgroundImageFix"/>
<feColorMatrix in="SourceAlpha" type="matrix" values="0 0 0 0 0 0 0 0 0 0 0 0 0 0 0 0 0 0 127 0" result="hardAlpha"/>
<feOffset dy="3.2"/>
<feGaussianBlur stdDeviation="1.6"/>
<feComposite in2="hardAlpha" operator="out"/>
<feColorMatrix type="matrix" values="0 0 0 0 1 0 0 0 0 1 0 0 0 0 1 0 0 0 0.25 0"/>
<feBlend mode="normal" in2="BackgroundImageFix" result="effect1_dropShadow_443_229"/>
<feBlend mode="normal" in="SourceGraphic" in2="effect1_dropShadow_443_229" result="shape"/>
</filter>
<filter id="filter1_d_443_229" x="754.8" y="0" width="60.4" height="61.9176" filterUnits="userSpaceOnUse" color-interpolation-filters="sRGB">
<feFlood flood-opacity="0" result="BackgroundImageFix"/>
<feColorMatrix in="SourceAlpha" type="matrix" values="0 0 0 0 0 0 0 0 0 0 0 0 0 0 0 0 0 0 127 0" result="hardAlpha"/>
<feOffset dy="3.2"/>
<feGaussianBlur stdDeviation="1.6"/>
<feComposite in2="hardAlpha" operator="out"/>
<feColorMatrix type="matrix" values="0 0 0 0 1 0 0 0 0 1 0 0 0 0 1 0 0 0 0.25 0"/>
<feBlend mode="normal" in2="BackgroundImageFix" result="effect1_dropShadow_443_229"/>
<feBlend mode="normal" in="SourceGraphic" in2="effect1_dropShadow_443_229" result="shape"/>
</filter>
<filter id="filter2_d_443_229" x="-3.2" y="0" width="756.4" height="63.1246" filterUnits="userSpaceOnUse" color-interpolation-filters="sRGB">
<feFlood flood-opacity="0" result="BackgroundImageFix"/>
<feColorMatrix in="SourceAlpha" type="matrix" values="0 0 0 0 0 0 0 0 0 0 0 0 0 0 0 0 0 0 127 0" result="hardAlpha"/>
<feOffset dy="3.2"/>
<feGaussianBlur stdDeviation="1.6"/>
<feComposite in2="hardAlpha" operator="out"/>
<feColorMatrix type="matrix" values="0 0 0 0 1 0 0 0 0 1 0 0 0 0 1 0 0 0 0.25 0"/>
<feBlend mode="normal" in2="BackgroundImageFix" result="effect1_dropShadow_443_229"/>
<feBlend mode="normal" in="SourceGraphic" in2="effect1_dropShadow_443_229" result="shape"/>
</filter>
<filter id="filter3_d_443_229" x="466.8" y="186" width="756.4" height="63.1246" filterUnits="userSpaceOnUse" color-interpolation-filters="sRGB">
<feFlood flood-opacity="0" result="BackgroundImageFix"/>
<feColorMatrix in="SourceAlpha" type="matrix" values="0 0 0 0 0 0 0 0 0 0 0 0 0 0 0 0 0 0 127 0" result="hardAlpha"/>
<feOffset dy="3.2"/>
<feGaussianBlur stdDeviation="1.6"/>
<feComposite in2="hardAlpha" operator="out"/>
<feColorMatrix type="matrix" values="0 0 0 0 1 0 0 0 0 1 0 0 0 0 1 0 0 0 0.25 0"/>
<feBlend mode="normal" in2="BackgroundImageFix" result="effect1_dropShadow_443_229"/>
<feBlend mode="normal" in="SourceGraphic" in2="effect1_dropShadow_443_229" result="shape"/>
</filter>
<filter id="filter4_d_443_229" x="390.8" y="186" width="60.4" height="61.9176" filterUnits="userSpaceOnUse" color-interpolation-filters="sRGB">
<feFlood flood-opacity="0" result="BackgroundImageFix"/>
<feColorMatrix in="SourceAlpha" type="matrix" values="0 0 0 0 0 0 0 0 0 0 0 0 0 0 0 0 0 0 127 0" result="hardAlpha"/>
<feOffset dy="3.2"/>
<feGaussianBlur stdDeviation="1.6"/>
<feComposite in2="hardAlpha" operator="out"/>
<feColorMatrix type="matrix" values="0 0 0 0 1 0 0 0 0 1 0 0 0 0 1 0 0 0 0.25 0"/>
<feBlend mode="normal" in2="BackgroundImageFix" result="effect1_dropShadow_443_229"/>
<feBlend mode="normal" in="SourceGraphic" in2="effect1_dropShadow_443_229" result="shape"/>
</filter>
<filter id="filter5_d_443_229" x="-367.2" y="186" width="756.4" height="63.1246" filterUnits="userSpaceOnUse" color-interpolation-filters="sRGB">
<feFlood flood-opacity="0" result="BackgroundImageFix"/>
<feColorMatrix in="SourceAlpha" type="matrix" values="0 0 0 0 0 0 0 0 0 0 0 0 0 0 0 0 0 0 127 0" result="hardAlpha"/>
<feOffset dy="3.2"/>
<feGaussianBlur stdDeviation="1.6"/>
<feComposite in2="hardAlpha" operator="out"/>
<feColorMatrix type="matrix" values="0 0 0 0 1 0 0 0 0 1 0 0 0 0 1 0 0 0 0.25 0"/>
<feBlend mode="normal" in2="BackgroundImageFix" result="effect1_dropShadow_443_229"/>
<feBlend mode="normal" in="SourceGraphic" in2="effect1_dropShadow_443_229" result="shape"/>
</filter>
<filter id="filter6_d_443_229" x="1238.8" y="186" width="756.4" height="63.1246" filterUnits="userSpaceOnUse" color-interpolation-filters="sRGB">
<feFlood flood-opacity="0" result="BackgroundImageFix"/>
<feColorMatrix in="SourceAlpha" type="matrix" values="0 0 0 0 0 0 0 0 0 0 0 0 0 0 0 0 0 0 127 0" result="hardAlpha"/>
<feOffset dy="3.2"/>
<feGaussianBlur stdDeviation="1.6"/>
<feComposite in2="hardAlpha" operator="out"/>
<feColorMatrix type="matrix" values="0 0 0 0 1 0 0 0 0 1 0 0 0 0 1 0 0 0 0.25 0"/>
<feBlend mode="normal" in2="BackgroundImageFix" result="effect1_dropShadow_443_229"/>
<feBlend mode="normal" in="SourceGraphic" in2="effect1_dropShadow_443_229" result="shape"/>
</filter>
<filter id="filter7_d_443_229" x="-183.2" y="93" width="756.4" height="63.1246" filterUnits="userSpaceOnUse" color-interpolation-filters="sRGB">
<feFlood flood-opacity="0" result="BackgroundImageFix"/>
<feColorMatrix in="SourceAlpha" type="matrix" values="0 0 0 0 0 0 0 0 0 0 0 0 0 0 0 0 0 0 127 0" result="hardAlpha"/>
<feOffset dy="3.2"/>
<feGaussianBlur stdDeviation="1.6"/>
<feComposite in2="hardAlpha" operator="out"/>
<feColorMatrix type="matrix" values="0 0 0 0 1 0 0 0 0 1 0 0 0 0 1 0 0 0 0.25 0"/>
<feBlend mode="normal" in2="BackgroundImageFix" result="effect1_dropShadow_443_229"/>
<feBlend mode="normal" in="SourceGraphic" in2="effect1_dropShadow_443_229" result="shape"/>
</filter>
<filter id="filter8_d_443_229" x="650.8" y="93" width="756.4" height="63.1246" filterUnits="userSpaceOnUse" color-interpolation-filters="sRGB">
<feFlood flood-opacity="0" result="BackgroundImageFix"/>
<feColorMatrix in="SourceAlpha" type="matrix" values="0 0 0 0 0 0 0 0 0 0 0 0 0 0 0 0 0 0 127 0" result="hardAlpha"/>
<feOffset dy="3.2"/>
<feGaussianBlur stdDeviation="1.6"/>
<feComposite in2="hardAlpha" operator="out"/>
<feColorMatrix type="matrix" values="0 0 0 0 1 0 0 0 0 1 0 0 0 0 1 0 0 0 0.25 0"/>
<feBlend mode="normal" in2="BackgroundImageFix" result="effect1_dropShadow_443_229"/>
<feBlend mode="normal" in="SourceGraphic" in2="effect1_dropShadow_443_229" result="shape"/>
</filter>
<filter id="filter9_d_443_229" x="574.8" y="93" width="60.4" height="61.9176" filterUnits="userSpaceOnUse" color-interpolation-filters="sRGB">
<feFlood flood-opacity="0" result="BackgroundImageFix"/>
<feColorMatrix in="SourceAlpha" type="matrix" values="0 0 0 0 0 0 0 0 0 0 0 0 0 0 0 0 0 0 127 0" result="hardAlpha"/>
<feOffset dy="3.2"/>
<feGaussianBlur stdDeviation="1.6"/>
<feComposite in2="hardAlpha" operator="out"/>
<feColorMatrix type="matrix" values="0 0 0 0 1 0 0 0 0 1 0 0 0 0 1 0 0 0 0.25 0"/>
<feBlend mode="normal" in2="BackgroundImageFix" result="effect1_dropShadow_443_229"/>
<feBlend mode="normal" in="SourceGraphic" in2="effect1_dropShadow_443_229" result="shape"/>
</filter>
<filter id="filter10_d_443_229" x="1422.8" y="93" width="756.4" height="63.1246" filterUnits="userSpaceOnUse" color-interpolation-filters="sRGB">
<feFlood flood-opacity="0" result="BackgroundImageFix"/>
<feColorMatrix in="SourceAlpha" type="matrix" values="0 0 0 0 0 0 0 0 0 0 0 0 0 0 0 0 0 0 127 0" result="hardAlpha"/>
<feOffset dy="3.2"/>
<feGaussianBlur stdDeviation="1.6"/>
<feComposite in2="hardAlpha" operator="out"/>
<feColorMatrix type="matrix" values="0 0 0 0 1 0 0 0 0 1 0 0 0 0 1 0 0 0 0.25 0"/>
<feBlend mode="normal" in2="BackgroundImageFix" result="effect1_dropShadow_443_229"/>
<feBlend mode="normal" in="SourceGraphic" in2="effect1_dropShadow_443_229" result="shape"/>
</filter>
</defs>
</svg>
